<?xml version="1.0" standalone="no"?>
<!DOCTYPE svg PUBLIC "-//W3C//DTD SVG 20010904//EN"
 "http://www.w3.org/TR/2001/REC-SVG-20010904/DTD/svg10.dtd">
<svg version="1.0" xmlns="http://www.w3.org/2000/svg"
 width="64.000000pt" height="64.000000pt" viewBox="0 0 64.000000 64.000000"
 preserveAspectRatio="xMidYMid meet">

<g transform="translate(0.000000,64.000000) scale(0.100000,-0.100000)"
fill="#000000" stroke="none">
<path d="M0 320 l0 -320 320 0 320 0 0 320 0 320 -320 0 -320 0 0 -320z m372
270 c41 -12 58 -34 58 -74 0 -37 -63 -66 -164 -75 -81 -8 -149 -33 -175 -65
-16 -19 -10 -89 9 -111 19 -23 50 -19 50 5 0 37 30 81 65 96 21 8 63 13 107
12 l73 -1 -87 -6 c-102 -7 -134 -28 -145 -93 -5 -37 -8 -39 -37 -36 -23 2 -35
11 -45 32 -21 44 -20 136 2 169 17 27 18 27 132 27 70 0 115 4 115 10 0 6 -28
10 -65 10 -49 0 -67 4 -71 15 -26 66 75 113 178 85z m222 -133 c18 -24 21 -43
21 -127 0 -84 -3 -103 -21 -127 -18 -23 -29 -28 -73 -31 -43 -3 -51 -6 -51
-23 0 -52 -61 -89 -146 -89 -84 0 -134 35 -134 94 0 14 -5 26 -12 26 -9 0 -9
3 0 12 7 7 12 31 12 54 0 26 7 51 19 65 17 21 29 24 108 27 108 5 133 21 133
87 0 54 14 67 74 63 40 -2 53 -8 70 -31z"/>
<path d="M268 551 c-2 -17 -2 -28 2 -26 3 2 33 0 68 -4 60 -7 62 -7 62 16 0
28 -32 43 -90 43 -34 0 -38 -3 -42 -29z"/>
</g>
</svg>
